<svg aria-hidden="true" style="position: absolute; width: 0; height: 0; overflow: hidden;" version="1.1" xmlns="http://www.w3.org/2000/svg" xmlns:xlink="http://www.w3.org/1999/xlink">
<defs>
<symbol id="icon-pause" viewBox="0 0 22 32">
<path fill="#ff4d7d" style="fill: var(--color1, #ff4d7d)" d="M16.763 2.663c0-1.471 1.192-2.663 2.663-2.663s2.663 1.192 2.663 2.663v0 26.671c0 1.471-1.192 2.663-2.663 2.663s-2.663-1.192-2.663-2.663v0zM0 2.663c0-1.471 1.192-2.663 2.663-2.663s2.663 1.192 2.663 2.663v0 26.671c0 1.471-1.192 2.663-2.663 2.663s-2.663-1.192-2.663-2.663v0z"></path>
</symbol>
<symbol id="icon-burger" viewBox="0 0 58 32">
<path d="M4.364 0h49.455c2.41 0 4.364 1.954 4.364 4.364s-1.954 4.364-4.364 4.364h-49.455c-2.41 0-4.364-1.954-4.364-4.364s1.954-4.364 4.364-4.364z"></path>
<path d="M24.727 23.273h29.091c2.41 0 4.364 1.954 4.364 4.364s-1.954 4.364-4.364 4.364h-29.091c-2.41 0-4.364-1.954-4.364-4.364s1.954-4.364 4.364-4.364z"></path>
</symbol>
<symbol id="icon-play-round" viewBox="0 0 32 32">
<path opacity="0.4" d="M32 16c0 8.837-7.163 16-16 16s-16-7.163-16-16c0-8.837 7.163-16 16-16s16 7.163 16 16z"></path>
<path d="M22.211 16.35l-8.926 5.95c-0.065 0.044-0.146 0.070-0.232 0.070-0.232 0-0.421-0.188-0.421-0.42v-11.901c0-0.232 0.189-0.421 0.421-0.421 0.087 0 0.168 0.026 0.235 0.071l-0.002-0.001 8.926 5.95c0.114 0.077 0.187 0.205 0.187 0.35s-0.074 0.274-0.186 0.349l-0.002 0.001z"></path>
</symbol>
<symbol id="icon-pause-round" viewBox="0 0 32 32">
<path opacity="0.4" d="M32 16c0 8.837-7.163 16-16 16s-16-7.163-16-16c0-8.837 7.163-16 16-16s16 7.163 16 16z"></path>
<path d="M17.965 11.088c0.016-0.53 0.45-0.954 0.982-0.954s0.966 0.424 0.982 0.953l0 0.001v9.824c0 0.009 0 0.019 0 0.029 0 0.543-0.44 0.983-0.983 0.983s-0.983-0.44-0.983-0.983c0-0.010 0-0.020 0-0.030l-0 0.001zM11.789 11.088c0.016-0.53 0.45-0.954 0.982-0.954s0.966 0.424 0.982 0.953l0 0.001v9.824c0 0.009 0 0.019 0 0.029 0 0.543-0.44 0.983-0.983 0.983s-0.983-0.44-0.983-0.983c0-0.010 0-0.020 0-0.030l-0 0.001z"></path>
</symbol>
<symbol id="icon-progress" viewBox="0 0 235 32">
<path fill="#000" style="fill: var(--color3, #000)" opacity="0.196" d="M106.398 7.724c-0.415 0-0.752 0.337-0.752 0.752v0 15.048c0 0.415 0.337 0.752 0.752 0.752s0.752-0.337 0.752-0.752v0-15.047c0-0 0-0.001 0-0.001 0-0.415-0.337-0.752-0.752-0.752 0 0 0 0 0 0v0z"></path>
<path fill="#000" style="fill: var(--color3, #000)" opacity="0.196" d="M110.159 11.486c-0.415 0-0.752 0.337-0.752 0.752v0 7.524c0 0.415 0.337 0.752 0.752 0.752s0.752-0.337 0.752-0.752v-7.524c0-0.415-0.337-0.752-0.752-0.752v0z"></path>
<path fill="#000" style="fill: var(--color3, #000)" opacity="0.196" d="M113.922 13.491c-0.415 0-0.752 0.337-0.752 0.752v0 3.256c0 0.415 0.337 0.752 0.752 0.752s0.752-0.337 0.752-0.752v0-3.256c0-0.415-0.337-0.752-0.752-0.752v0z"></path>
<path fill="#ff4d7d" style="fill: var(--color1, #ff4d7d)" d="M30.846 12.94c0.415 0 0.752 0.337 0.752 0.752v0 3.761c0 0.415-0.337 0.752-0.752 0.752s-0.752-0.337-0.752-0.752v0-3.761c0-0.415 0.337-0.752 0.752-0.752v0z"></path>
<path fill="#ff4d7d" style="fill: var(--color1, #ff4d7d)" d="M27.081 8.617c0.427 0.047 0.756 0.406 0.756 0.842 0 0.026-0.001 0.052-0.004 0.078l0-0.003v12.674c0.009 0.044 0.014 0.095 0.014 0.147 0 0.423-0.343 0.766-0.766 0.766s-0.766-0.343-0.766-0.766c0-0.052 0.005-0.103 0.015-0.152l-0.001 0.005v-12.674c-0.002-0.022-0.003-0.048-0.003-0.075 0-0.435 0.329-0.794 0.752-0.841l0.004-0z"></path>
<path fill="#ff4d7d" style="fill: var(--color1, #ff4d7d)" d="M23.324 3.421c0.421 0.025 0.753 0.372 0.753 0.797 0 0.015-0 0.029-0.001 0.043l0-0.002v23.478c0.003 0.026 0.005 0.057 0.005 0.088 0 0.418-0.339 0.757-0.757 0.757s-0.757-0.339-0.757-0.757c0-0.031 0.002-0.062 0.006-0.092l-0 0.004v-23.478c-0.001-0.012-0.001-0.027-0.001-0.041 0-0.425 0.332-0.773 0.751-0.797l0.002-0z"></path>
<path fill="#ff4d7d" style="fill: var(--color1, #ff4d7d)" d="M19.561 7.185c0.425 0.039 0.755 0.394 0.755 0.825 0 0.023-0.001 0.045-0.003 0.067l0-0.003v15.097c0.007 0.038 0.010 0.081 0.010 0.125 0 0.421-0.341 0.763-0.763 0.763s-0.763-0.341-0.763-0.763c0-0.044 0.004-0.087 0.011-0.13l-0.001 0.005v-15.097c-0.002-0.019-0.002-0.041-0.002-0.064 0-0.432 0.33-0.786 0.752-0.825l0.003-0z"></path>
<path fill="#ff4d7d" style="fill: var(--color1, #ff4d7d)" d="M8.203 5.362c0.423 0.030 0.754 0.381 0.754 0.808 0 0.018-0.001 0.035-0.002 0.052l0-0.002v19.3c0.004 0.030 0.006 0.064 0.006 0.099 0 0.419-0.34 0.759-0.759 0.759s-0.759-0.34-0.759-0.759c0-0.035 0.002-0.069 0.007-0.103l-0 0.004v-19.3c-0.001-0.015-0.002-0.032-0.002-0.050 0-0.428 0.331-0.778 0.751-0.808l0.003-0z"></path>
<path fill="#ff4d7d" style="fill: var(--color1, #ff4d7d)" d="M0.752 6.431c0.423 0.034 0.754 0.386 0.754 0.816 0 0.019-0.001 0.038-0.002 0.057l0-0.003v17.397c0.005 0.032 0.008 0.070 0.008 0.108 0 0.42-0.34 0.76-0.76 0.76s-0.76-0.34-0.76-0.76c0-0.038 0.003-0.076 0.008-0.112l-0.001 0.004v-17.396c-0.001-0.017-0.002-0.036-0.002-0.055 0-0.429 0.331-0.781 0.751-0.815l0.003-0z"></path>
<path fill="#ff4d7d" style="fill: var(--color1, #ff4d7d)" d="M4.514 10.646c0.415 0 0.752 0.129 0.752 0.281v10.144c0 0.156-0.337 0.281-0.752 0.281s-0.752-0.129-0.752-0.281v-10.142c0-0.156 0.337-0.281 0.752-0.281z"></path>
<path fill="#ff4d7d" style="fill: var(--color1, #ff4d7d)" d="M15.799 13.742c0.415 0 0.752 0.337 0.752 0.752v0 3.009c0 0.415-0.337 0.752-0.752 0.752s-0.752-0.337-0.752-0.752v-3.012c0.001-0.414 0.338-0.75 0.752-0.75 0 0 0 0 0 0v0z"></path>
<path fill="#ff4d7d" style="fill: var(--color1, #ff4d7d)" d="M12.109 12.033c0.415 0 0.752 0.337 0.752 0.752v0 6.124c0 0.415-0.337 0.752-0.752 0.752s-0.752-0.337-0.752-0.752v-6.125c0.001-0.415 0.337-0.751 0.752-0.751 0 0 0 0 0 0v0z"></path>
<path fill="#ff4d7d" style="fill: var(--color1, #ff4d7d)" d="M76.304 12.955c-0.415 0-0.752 0.337-0.752 0.752v0 3.761c0 0.415 0.337 0.752 0.752 0.752s0.752-0.337 0.752-0.752v0-3.761c0-0.415-0.337-0.752-0.752-0.752v0z"></path>
<path fill="#ff4d7d" style="fill: var(--color1, #ff4d7d)" d="M80.068 9.889c-0.415 0-0.752 0.337-0.752 0.752v0 10.421c0 0.415 0.337 0.752 0.752 0.752s0.752-0.337 0.752-0.752v-10.42c0-0 0-0.001 0-0.001 0-0.415-0.337-0.752-0.752-0.752 0 0 0 0 0 0v0z"></path>
<path fill="#ff4d7d" style="fill: var(--color1, #ff4d7d)" d="M83.828 3.422c-0.421 0.025-0.753 0.372-0.753 0.797 0 0.015 0 0.029 0.001 0.043l-0-0.002v23.478c-0.003 0.026-0.005 0.057-0.005 0.088 0 0.418 0.339 0.757 0.757 0.757s0.757-0.339 0.757-0.757c0-0.031-0.002-0.062-0.006-0.092l0 0.004v-23.478c0.001-0.012 0.001-0.027 0.001-0.041 0-0.425-0.332-0.773-0.751-0.797l-0.002-0z"></path>
<path fill="#ff4d7d" style="fill: var(--color1, #ff4d7d)" d="M87.589 2.221c-0.415 0-0.752 0.631-0.752 1.412v23.984c0 0.774 0.337 1.412 0.752 1.412s0.752-0.632 0.752-1.412v-23.985c0-0.779-0.342-1.41-0.752-1.41z"></path>
<path fill="#ff4d7d" style="fill: var(--color1, #ff4d7d)" d="M98.948 5.363c-0.423 0.030-0.754 0.381-0.754 0.808 0 0.018 0.001 0.035 0.002 0.052l-0-0.002v19.3c-0.004 0.030-0.006 0.064-0.006 0.099 0 0.419 0.34 0.759 0.759 0.759s0.759-0.34 0.759-0.759c0-0.035-0.002-0.069-0.007-0.103l0 0.004v-19.3c0.001-0.015 0.002-0.032 0.002-0.050 0-0.428-0.331-0.778-0.751-0.808l-0.003-0z"></path>
<path fill="#ff4d7d" style="fill: var(--color1, #ff4d7d)" d="M102.636 0.413c-0.42 0.019-0.753 0.365-0.753 0.788 0 0.012 0 0.023 0.001 0.035l-0-0.002v29.533c-0.002 0.019-0.003 0.040-0.003 0.062 0 0.417 0.338 0.755 0.755 0.755s0.755-0.338 0.755-0.755c0-0.022-0.001-0.044-0.003-0.065l0 0.003v-29.533c0-0.010 0.001-0.021 0.001-0.033 0-0.423-0.333-0.768-0.751-0.788l-0.002-0z"></path>
<path fill="#ff4d7d" style="fill: var(--color1, #ff4d7d)" d="M91.351 13.742c-0.415 0-0.752 0.337-0.752 0.752v0 3.009c0 0.415 0.337 0.752 0.752 0.752s0.752-0.337 0.752-0.752v-3.012c-0.001-0.414-0.338-0.75-0.752-0.75 0 0 0 0 0 0v0z"></path>
<path fill="#ff4d7d" style="fill: var(--color1, #ff4d7d)" d="M95.043 12.040c-0.415 0-0.752 0.337-0.752 0.752v0 6.124c0 0.415 0.337 0.752 0.752 0.752s0.752-0.337 0.752-0.752v-6.125c-0.001-0.415-0.337-0.751-0.752-0.751 0 0 0 0 0 0v0z"></path>
<path fill="#ff4d7d" style="fill: var(--color1, #ff4d7d)" d="M34.661 12.946c-0.415 0-0.752 0.337-0.752 0.752v0 3.761c0 0.415 0.337 0.752 0.752 0.752s0.752-0.337 0.752-0.752v0-3.761c0-0.415-0.337-0.752-0.752-0.752v0z"></path>
<path fill="#ff4d7d" style="fill: var(--color1, #ff4d7d)" d="M38.425 9.883c-0.415 0-0.752 0.337-0.752 0.752v0 10.421c0 0.415 0.337 0.752 0.752 0.752s0.752-0.337 0.752-0.752v-10.42c0-0 0-0.001 0-0.001 0-0.415-0.337-0.752-0.752-0.752 0 0 0 0 0 0v0z"></path>
<path fill="#ff4d7d" style="fill: var(--color1, #ff4d7d)" d="M42.185 2.36c-0.426 0.045-0.755 0.403-0.755 0.837 0 0.023 0.001 0.046 0.003 0.069l-0-0.003v25.459c-0.009 0.044-0.014 0.095-0.014 0.147 0 0.423 0.343 0.766 0.766 0.766s0.766-0.343 0.766-0.766c0-0.052-0.005-0.103-0.015-0.152l0.001 0.005v-25.453c0.002-0.022 0.003-0.047 0.003-0.073 0-0.434-0.329-0.792-0.752-0.837l-0.004-0z"></path>
<path fill="#ff4d7d" style="fill: var(--color1, #ff4d7d)" d="M45.946 7.185c-0.425 0.039-0.755 0.394-0.755 0.825 0 0.023 0.001 0.045 0.003 0.067l-0-0.003v15.097c-0.007 0.038-0.010 0.081-0.010 0.125 0 0.421 0.341 0.763 0.763 0.763s0.763-0.341 0.763-0.763c0-0.044-0.004-0.087-0.011-0.13l0.001 0.005v-15.097c0.002-0.019 0.002-0.041 0.002-0.064 0-0.432-0.33-0.786-0.752-0.825l-0.003-0z"></path>
<path fill="#ff4d7d" style="fill: var(--color1, #ff4d7d)" d="M57.306 5.363c-0.423 0.030-0.754 0.381-0.754 0.808 0 0.018 0.001 0.035 0.002 0.052l-0-0.002v19.3c-0.004 0.030-0.006 0.064-0.006 0.099 0 0.419 0.34 0.759 0.759 0.759s0.759-0.34 0.759-0.759c0-0.035-0.002-0.069-0.007-0.103l0 0.004v-19.3c0.001-0.015 0.002-0.032 0.002-0.050 0-0.428-0.331-0.778-0.751-0.808l-0.003-0z"></path>
<path fill="#ff4d7d" style="fill: var(--color1, #ff4d7d)" d="M64.756 6.431c-0.423 0.034-0.754 0.386-0.754 0.816 0 0.019 0.001 0.038 0.002 0.057l-0-0.003v17.397c-0.005 0.032-0.008 0.070-0.008 0.108 0 0.42 0.34 0.76 0.76 0.76s0.76-0.34 0.76-0.76c0-0.038-0.003-0.076-0.008-0.112l0.001 0.004v-17.396c0.001-0.017 0.002-0.036 0.002-0.055 0-0.429-0.331-0.781-0.751-0.815l-0.003-0z"></path>
<path fill="#ff4d7d" style="fill: var(--color1, #ff4d7d)" d="M68.518 11.484c-0.415 0-0.752 0.337-0.752 0.752v0 7.524c0 0.415 0.337 0.752 0.752 0.752s0.752-0.337 0.752-0.752v-7.524c0-0.415-0.337-0.752-0.752-0.752v0z"></path>
<path fill="#ff4d7d" style="fill: var(--color1, #ff4d7d)" d="M60.993 7.936c-0.416 0-0.752 0.19-0.752 0.425v15.278c0 0.235 0.337 0.425 0.752 0.425s0.752-0.19 0.752-0.425v-15.278c0-0.235-0.337-0.425-0.752-0.425z"></path>
<path fill="#ff4d7d" style="fill: var(--color1, #ff4d7d)" d="M49.709 13.742c-0.415 0-0.752 0.337-0.752 0.752v0 3.009c0 0.415 0.337 0.752 0.752 0.752s0.752-0.337 0.752-0.752v-3.012c-0.001-0.414-0.338-0.75-0.752-0.75 0 0 0 0 0 0v0z"></path>
<path fill="#ff4d7d" style="fill: var(--color1, #ff4d7d)" d="M72.279 13.474c-0.415 0-0.752 0.337-0.752 0.752v0 3.256c0 0.415 0.337 0.752 0.752 0.752s0.752-0.337 0.752-0.752v0-3.256c0-0.415-0.337-0.752-0.752-0.752v0z"></path>
<path fill="#ff4d7d" style="fill: var(--color1, #ff4d7d)" d="M53.4 12.037c-0.415 0-0.752 0.337-0.752 0.752v0 6.124c0 0.415 0.337 0.752 0.752 0.752s0.752-0.337 0.752-0.752v-6.125c-0.001-0.415-0.337-0.751-0.752-0.751 0 0 0 0 0 0v0z"></path>
<path fill="#000" style="fill: var(--color3, #000)" opacity="0.2" d="M117.735 12.941c-0.415 0-0.752 0.337-0.752 0.752v0 3.761c0 0.415 0.337 0.752 0.752 0.752s0.752-0.337 0.752-0.752v0-3.761c0-0.415-0.337-0.752-0.752-0.752v0z"></path>
<path fill="#000" style="fill: var(--color3, #000)" opacity="0.2" d="M121.499 8.618c-0.427 0.047-0.756 0.406-0.756 0.842 0 0.026 0.001 0.052 0.004 0.078l-0-0.003v12.674c-0.009 0.044-0.014 0.095-0.014 0.147 0 0.423 0.343 0.766 0.766 0.766s0.766-0.343 0.766-0.766c0-0.052-0.005-0.103-0.015-0.152l0.001 0.005v-12.674c0.002-0.022 0.003-0.048 0.003-0.075 0-0.435-0.329-0.794-0.752-0.841l-0.004-0z"></path>
<path fill="#000" style="fill: var(--color3, #000)" opacity="0.2" d="M125.259 3.422c-0.421 0.025-0.753 0.372-0.753 0.797 0 0.015 0 0.029 0.001 0.043l-0-0.002v23.478c-0.003 0.026-0.005 0.057-0.005 0.088 0 0.418 0.339 0.757 0.757 0.757s0.757-0.339 0.757-0.757c0-0.031-0.002-0.062-0.006-0.092l0 0.004v-23.478c0.001-0.012 0.001-0.027 0.001-0.041 0-0.425-0.332-0.773-0.751-0.797l-0.002-0z"></path>
<path fill="#000" style="fill: var(--color3, #000)" opacity="0.2" d="M129.021 7.186c-0.425 0.039-0.755 0.394-0.755 0.825 0 0.023 0.001 0.045 0.003 0.067l-0-0.003v15.097c-0.007 0.038-0.010 0.081-0.010 0.125 0 0.421 0.341 0.763 0.763 0.763s0.763-0.341 0.763-0.763c0-0.044-0.004-0.087-0.011-0.13l0.001 0.005v-15.097c0.002-0.019 0.002-0.041 0.002-0.064 0-0.432-0.33-0.786-0.751-0.825l-0.003-0z"></path>
<path fill="#000" style="fill: var(--color3, #000)" opacity="0.2" d="M140.38 8.052c-0.016-0.001-0.034-0.002-0.053-0.002-0.366 0-0.667 0.28-0.699 0.638l-0 0.003v14.361c0.062 0.364 0.375 0.638 0.752 0.638s0.69-0.274 0.752-0.633l0.001-0.005v-14.362c-0.033-0.36-0.333-0.639-0.699-0.639-0.019 0-0.037 0.001-0.056 0.002l0.002-0z"></path>
<path fill="#000" style="fill: var(--color3, #000)" opacity="0.2" d="M147.829 12.314c-0.416 0-0.752 0.15-0.752 0.335v6.701c0 0.186 0.337 0.335 0.752 0.335s0.752-0.15 0.752-0.335v-6.701c0-0.185-0.337-0.335-0.752-0.335z"></path>
<path fill="#000" style="fill: var(--color3, #000)" opacity="0.2" d="M162.804 12.314c-0.416 0-0.752 0.15-0.752 0.335v6.701c0 0.186 0.337 0.335 0.752 0.335s0.752-0.15 0.752-0.335v-6.701c0-0.185-0.337-0.335-0.752-0.335z"></path>
<path fill="#000" style="fill: var(--color3, #000)" opacity="0.2" d="M177.996 12.314c-0.416 0-0.752 0.15-0.752 0.335v6.701c0 0.186 0.337 0.335 0.752 0.335s0.752-0.15 0.752-0.335v-6.701c0-0.185-0.337-0.335-0.752-0.335z"></path>
<path fill="#000" style="fill: var(--color3, #000)" opacity="0.2" d="M193.188 12.314c-0.416 0-0.752 0.15-0.752 0.335v6.701c0 0.186 0.337 0.335 0.752 0.335s0.752-0.15 0.752-0.335v-6.701c0-0.185-0.337-0.335-0.752-0.335z"></path>
<path fill="#000" style="fill: var(--color3, #000)" opacity="0.2" d="M151.592 11.486c-0.415 0-0.752 0.337-0.752 0.752v0 7.524c0 0.415 0.337 0.752 0.752 0.752s0.752-0.337 0.752-0.752v-7.524c0-0.415-0.337-0.752-0.752-0.752v0z"></path>
<path fill="#000" style="fill: var(--color3, #000)" opacity="0.2" d="M166.565 11.486c-0.415 0-0.752 0.337-0.752 0.752v0 7.524c0 0.415 0.337 0.752 0.752 0.752s0.752-0.337 0.752-0.752v-7.524c0-0.415-0.337-0.752-0.752-0.752v0z"></path>
<path fill="#000" style="fill: var(--color3, #000)" opacity="0.2" d="M181.757 11.486c-0.415 0-0.752 0.337-0.752 0.752v0 7.524c0 0.415 0.337 0.752 0.752 0.752s0.752-0.337 0.752-0.752v-7.524c0-0.415-0.337-0.752-0.752-0.752v0z"></path>
<path fill="#000" style="fill: var(--color3, #000)" opacity="0.2" d="M196.95 11.486c-0.415 0-0.752 0.337-0.752 0.752v0 7.524c0 0.415 0.337 0.752 0.752 0.752s0.752-0.337 0.752-0.752v-7.524c0-0.415-0.337-0.752-0.752-0.752v0z"></path>
<path fill="#000" style="fill: var(--color3, #000)" opacity="0.2" d="M144.068 6.433c-0.416 0-0.752 0.226-0.752 0.503v18.128c0 0.279 0.337 0.503 0.752 0.503s0.752-0.226 0.752-0.503v-18.127c0-0.277-0.337-0.503-0.752-0.503z"></path>
<path fill="#000" style="fill: var(--color3, #000)" opacity="0.2" d="M159.043 6.433c-0.416 0-0.752 0.226-0.752 0.503v18.128c0 0.279 0.337 0.503 0.752 0.503s0.752-0.226 0.752-0.503v-18.127c0-0.277-0.337-0.503-0.752-0.503z"></path>
<path fill="#000" style="fill: var(--color3, #000)" opacity="0.2" d="M174.234 6.433c-0.416 0-0.752 0.226-0.752 0.503v18.128c0 0.279 0.337 0.503 0.752 0.503s0.752-0.226 0.752-0.503v-18.127c0-0.277-0.337-0.503-0.752-0.503z"></path>
<path fill="#000" style="fill: var(--color3, #000)" opacity="0.2" d="M189.426 6.433c-0.416 0-0.752 0.226-0.752 0.503v18.128c0 0.279 0.337 0.503 0.752 0.503s0.752-0.226 0.752-0.503v-18.127c0-0.277-0.337-0.503-0.752-0.503z"></path>
<path fill="#000" style="fill: var(--color3, #000)" opacity="0.2" d="M132.783 13.744c-0.415 0-0.752 0.337-0.752 0.752v0 3.009c0 0.415 0.337 0.752 0.752 0.752s0.752-0.337 0.752-0.752v-3.012c-0.001-0.414-0.338-0.75-0.752-0.75 0 0 0 0 0 0v0z"></path>
<path fill="#000" style="fill: var(--color3, #000)" opacity="0.2" d="M155.353 13.473c-0.415 0-0.752 0.337-0.752 0.752v0 3.256c0 0.415 0.337 0.752 0.752 0.752s0.752-0.337 0.752-0.752v0-3.256c0-0.415-0.337-0.752-0.752-0.752v0z"></path>
<path fill="#000" style="fill: var(--color3, #000)" opacity="0.2" d="M170.327 13.473c-0.415 0-0.752 0.337-0.752 0.752v0 3.256c0 0.415 0.337 0.752 0.752 0.752s0.752-0.337 0.752-0.752v0-3.256c0-0.415-0.337-0.752-0.752-0.752v0z"></path>
<path fill="#000" style="fill: var(--color3, #000)" opacity="0.2" d="M185.52 13.473c-0.415 0-0.752 0.337-0.752 0.752v0 3.256c0 0.415 0.337 0.752 0.752 0.752s0.752-0.337 0.752-0.752v0-3.256c0-0.415-0.337-0.752-0.752-0.752v0z"></path>
<path fill="#000" style="fill: var(--color3, #000)" opacity="0.2" d="M200.711 13.473c-0.415 0-0.752 0.337-0.752 0.752v0 3.256c0 0.415 0.337 0.752 0.752 0.752s0.752-0.337 0.752-0.752v0-3.256c0-0.415-0.337-0.752-0.752-0.752v0z"></path>
<path fill="#000" style="fill: var(--color3, #000)" opacity="0.2" d="M136.474 12.034c-0.415 0-0.752 0.337-0.752 0.752v0 6.124c0 0.415 0.337 0.752 0.752 0.752s0.752-0.337 0.752-0.752v-6.125c-0.001-0.415-0.337-0.751-0.752-0.751 0 0 0 0 0 0v0z"></path>
<path fill="#000" style="fill: var(--color3, #000)" opacity="0.2" d="M234.664 9.891c0.415 0 0.752 0.337 0.752 0.752v0 10.421c0 0.415-0.337 0.752-0.752 0.752s-0.752-0.337-0.752-0.752v-10.42c0-0 0-0.001 0-0.001 0-0.415 0.337-0.752 0.752-0.752 0 0 0 0 0 0v0z"></path>
<path fill="#000" style="fill: var(--color3, #000)" opacity="0.2" d="M230.906 3.422c0.421 0.025 0.753 0.372 0.753 0.797 0 0.015-0 0.029-0.001 0.043l0-0.002v23.478c0.003 0.026 0.005 0.057 0.005 0.088 0 0.418-0.339 0.757-0.757 0.757s-0.757-0.339-0.757-0.757c0-0.031 0.002-0.062 0.006-0.092l-0 0.004v-23.478c-0.001-0.012-0.001-0.027-0.001-0.041 0-0.425 0.332-0.773 0.751-0.797l0.002-0z"></path>
<path fill="#000" style="fill: var(--color3, #000)" opacity="0.2" d="M227.143 7.185c0.425 0.039 0.755 0.394 0.755 0.825 0 0.023-0.001 0.045-0.003 0.067l0-0.003v15.097c0.007 0.038 0.010 0.081 0.010 0.125 0 0.421-0.341 0.763-0.763 0.763s-0.763-0.341-0.763-0.763c0-0.044 0.004-0.087 0.011-0.13l-0.001 0.005v-15.097c-0.002-0.019-0.002-0.041-0.002-0.064 0-0.432 0.33-0.786 0.751-0.825l0.003-0z"></path>
<path fill="#000" style="fill: var(--color3, #000)" opacity="0.2" d="M215.785 5.363c0.423 0.030 0.754 0.381 0.754 0.808 0 0.018-0.001 0.035-0.002 0.052l0-0.002v19.3c0.004 0.030 0.006 0.064 0.006 0.099 0 0.419-0.34 0.759-0.759 0.759s-0.759-0.34-0.759-0.759c0-0.035 0.002-0.069 0.007-0.103l-0 0.004v-19.3c-0.001-0.015-0.002-0.032-0.002-0.050 0-0.428 0.331-0.778 0.751-0.808l0.003-0z"></path>
<path fill="#000" style="fill: var(--color3, #000)" opacity="0.2" d="M208.335 6.431c0.423 0.034 0.754 0.386 0.754 0.816 0 0.019-0.001 0.038-0.002 0.057l0-0.003v17.397c0.005 0.032 0.008 0.070 0.008 0.108 0 0.42-0.34 0.76-0.76 0.76s-0.76-0.34-0.76-0.76c0-0.038 0.003-0.076 0.008-0.112l-0 0.004v-17.396c-0.001-0.017-0.002-0.036-0.002-0.055 0-0.429 0.331-0.781 0.751-0.815l0.003-0z"></path>
<path fill="#000" style="fill: var(--color3, #000)" opacity="0.2" d="M204.573 11.486c0.415 0 0.752 0.337 0.752 0.752v0 7.524c0 0.415-0.337 0.752-0.752 0.752s-0.752-0.337-0.752-0.752v-7.524c0-0.415 0.337-0.752 0.752-0.752v0z"></path>
<path fill="#000" style="fill: var(--color3, #000)" opacity="0.2" d="M212.096 0c0.421 0.026 0.753 0.374 0.753 0.8 0 0.015-0 0.030-0.001 0.045l0-0.002v30.315c0.003 0.026 0.005 0.057 0.005 0.088 0 0.418-0.339 0.757-0.757 0.757s-0.757-0.339-0.757-0.757c0-0.031 0.002-0.062 0.006-0.092l-0 0.004v-30.315c-0.001-0.013-0.001-0.028-0.001-0.043 0-0.426 0.332-0.774 0.751-0.8l0.002-0z"></path>
<path fill="#000" style="fill: var(--color3, #000)" opacity="0.2" d="M223.382 13.742c0.415 0 0.752 0.337 0.752 0.752v0 3.009c0 0.415-0.337 0.752-0.752 0.752s-0.752-0.337-0.752-0.752v-3.012c0.001-0.414 0.338-0.75 0.752-0.75 0 0 0 0 0 0v0z"></path>
<path fill="#000" style="fill: var(--color3, #000)" opacity="0.2" d="M219.691 12.040c0.415 0 0.752 0.337 0.752 0.752v0 6.124c0 0.415-0.337 0.752-0.752 0.752s-0.752-0.337-0.752-0.752v-6.125c0.001-0.415 0.337-0.751 0.752-0.751 0 0 0 0 0 0v0z"></path>
</symbol>
<symbol id="icon-chevron-down" viewBox="0 0 56 32">
<path d="M27.995 22.356l21.162-21.178c0.722-0.725 1.721-1.174 2.825-1.174s2.103 0.449 2.824 1.174l0 0c0.719 0.728 1.163 1.728 1.163 2.832s-0.444 2.105-1.163 2.833l-23.979 23.994c-0.722 0.72-1.719 1.165-2.819 1.165-1.042 0-1.991-0.399-2.702-1.052l0.003 0.003-24.147-24.084c-0.726-0.724-1.176-1.726-1.176-2.832 0-2.209 1.791-4 4-4 1.103 0 2.101 0.446 2.825 1.168l-0-0z"></path>
</symbol>
<symbol id="icon-chevron-left" viewBox="0 0 18 32">
<path d="M5.517 16.006l12.108 12.1c0.415 0.413 0.671 0.984 0.671 1.615s-0.257 1.202-0.671 1.615l-0 0c-0.416 0.411-0.988 0.665-1.619 0.665s-1.203-0.254-1.62-0.665l-13.719-13.71c-0.412-0.413-0.666-0.983-0.666-1.612 0-0.596 0.228-1.138 0.602-1.545l-0.001 0.002 13.77-13.806c0.414-0.415 0.987-0.672 1.619-0.672 1.263 0 2.287 1.024 2.287 2.287 0 0.63-0.255 1.201-0.668 1.615l0-0z"></path>
</symbol>
<symbol id="icon-next" viewBox="0 0 32 32">
<path d="M21.66 15.016l-19.691-14.77c-0.205-0.16-0.466-0.257-0.75-0.257-0.676 0-1.223 0.548-1.223 1.223 0 0.004 0 0.007 0 0.011v-0.001 29.546c0 0.002 0 0.004 0 0.005 0 0.477 0.273 0.891 0.672 1.092l0.007 0.003c0.16 0.081 0.35 0.129 0.55 0.13h0c0 0 0.001 0 0.001 0 0.278 0 0.534-0.093 0.74-0.249l-0.003 0.002 19.691-14.77c0.303-0.225 0.497-0.582 0.497-0.985s-0.194-0.759-0.494-0.982l-0.003-0.002z"></path>
<path d="M30.769-0.006h-2.461c-0.676 0-1.223 0.548-1.223 1.223v0 29.56c0 0.676 0.548 1.223 1.223 1.223v0h2.461c0.676 0 1.223-0.548 1.223-1.223v0-29.543c0-0.005 0-0.011 0-0.016 0-0.676-0.548-1.223-1.223-1.223-0 0-0 0-0 0v0z"></path>
</symbol>
<symbol id="icon-prev" viewBox="0 0 32 32">
<path d="M10.338 15.016l19.687-14.77c0.205-0.161 0.467-0.259 0.752-0.259 0.676 0 1.223 0.548 1.223 1.223 0 0.004-0 0.008-0 0.013v-0.001 29.546c0 0.002 0 0.004 0 0.005 0 0.477-0.273 0.891-0.672 1.092l-0.007 0.003c-0.16 0.081-0.35 0.129-0.55 0.13h-0c-0 0-0.001 0-0.001 0-0.278 0-0.534-0.093-0.74-0.249l0.003 0.002-19.695-14.768c-0.303-0.225-0.498-0.582-0.498-0.985s0.194-0.759 0.494-0.982l0.003-0.002z"></path>
<path d="M1.231-0.008h2.461c0.676 0 1.223 0.548 1.223 1.223v0 29.56c0 0.676-0.548 1.223-1.223 1.223v0h-2.461c-0.676 0-1.223-0.548-1.223-1.223v0-29.543c-0-0.005-0-0.011-0-0.016 0-0.676 0.548-1.223 1.223-1.223 0 0 0 0 0 0v0z"></path>
</symbol>
<symbol id="icon-shuffle" viewBox="0 0 34 32">
<path d="M25.6 25.413v-3.013l8 4.8-8 4.8v-3.344c-5.060-0.742-9.211-4.026-11.164-8.491l-0.036-0.093v0.002c-2.26 5.175-7.333 8.726-13.235 8.726-0.002 0-0.003 0-0.005 0h-1.16v-3.2h1.16c4.591-0 8.537-2.763 10.266-6.717l0.028-0.072 1.205-2.811-1.205-2.811c-1.757-4.026-5.703-6.789-10.294-6.789h-1.16v-3.2h1.16c0.001 0 0.003 0 0.004 0 5.903 0 10.977 3.552 13.2 8.635l0.036 0.093v-0.002c1.989-4.557 6.141-7.84 11.122-8.573l0.078-0.009v-3.344l8 4.8-8 4.8v-3.013c-3.736 0.71-6.769 3.197-8.226 6.53l-0.028 0.072-1.205 2.811 1.205 2.811c1.485 3.405 4.518 5.891 8.184 6.59l0.070 0.011z"></path>
</symbol>
<symbol id="icon-sound" viewBox="0 0 42 32">
<path d="M9.263 23.577h-7.367c0 0 0 0 0 0-1.047 0-1.895-0.849-1.895-1.895 0-0.002 0-0.004 0-0.006v0-11.359c0-1.047 0.849-1.895 1.895-1.895v0h7.367l10.031-8.207c0.162-0.134 0.372-0.216 0.602-0.216 0.523 0 0.947 0.424 0.947 0.947 0 0.003 0 0.005-0 0.008v-0 30.099c0 0.002 0 0.005 0 0.007 0 0.523-0.424 0.947-0.947 0.947-0.229 0-0.439-0.081-0.603-0.217l0.002 0.001-10.029-8.213zM34.872 31.409l-2.683-2.683c3.507-3.137 5.703-7.676 5.703-12.728 0-5.308-2.425-10.049-6.228-13.177l-0.030-0.024 2.693-2.689c4.516 3.847 7.361 9.538 7.361 15.895 0 6.097-2.618 11.582-6.792 15.393l-0.016 0.015zM28.159 24.697l-2.695-2.695c1.804-1.399 2.953-3.567 2.953-6.003 0-2.697-1.409-5.065-3.531-6.408l-0.031-0.018 2.726-2.726c2.818 2.093 4.624 5.412 4.624 9.152 0 3.482-1.566 6.599-4.032 8.684l-0.017 0.014z"></path>
</symbol>
<symbol id="icon-home" viewBox="0 0 31 32">
<path d="M30.748 30.292c0 0.943-0.765 1.708-1.708 1.708v0h-27.331c-0.943 0-1.708-0.765-1.708-1.708v0-17.953c0-0 0-0.001 0-0.001 0-0.546 0.257-1.033 0.656-1.345l0.004-0.003 13.666-10.629c0.286-0.224 0.652-0.36 1.049-0.36s0.763 0.135 1.053 0.363l-0.004-0.003 13.666 10.629c0.403 0.316 0.659 0.802 0.659 1.348 0 0 0 0.001 0 0.001v-0 17.953zM13.666 18.334v10.249h3.416v-10.249z"></path>
</symbol>
<symbol id="icon-playlist" viewBox="0 0 41 32">
<path d="M0 26.355h18.825v3.765h-18.825zM0 13.178h26.355v3.765h-26.355zM0 0h37.649v3.765h-37.649zM32.002 21.026v-11.615h9.412v3.765h-5.647v13.176c-0.001 3.118-2.529 5.645-5.647 5.645s-5.647-2.528-5.647-5.647 2.528-5.647 5.647-5.647c0.675 0 1.322 0.118 1.922 0.335l-0.039-0.012z"></path>
</symbol>
<symbol id="icon-heart" viewBox="0 0 35 32">
<path d="M25.080 0c5.294 0.136 9.533 4.459 9.533 9.773 0 0.213-0.007 0.424-0.020 0.634l0.001-0.029c0 12.107-12.973 19.029-17.296 21.622-4.325-2.595-17.298-9.515-17.298-21.622-0.010-0.169-0.016-0.367-0.016-0.566 0-5.321 4.234-9.653 9.516-9.812l0.015-0c3.062 0.117 5.798 1.419 7.781 3.457l0.003 0.003c1.985-2.041 4.721-3.343 7.76-3.459l0.021-0.001z"></path>
</symbol>
<symbol id="icon-plus" viewBox="0 0 32 32">
<path d="M32 16c0 1.547-1.254 2.801-2.801 2.801v0h-10.4v10.4c0.001 0.023 0.001 0.050 0.001 0.077 0 1.547-1.254 2.801-2.801 2.801s-2.801-1.254-2.801-2.801c0-0.027 0-0.054 0.001-0.081l-0 0.004v-10.4h-10.4c-1.546 0-2.8-1.254-2.8-2.8s1.254-2.8 2.8-2.8v0h10.4v-10.4c0.043-1.513 1.28-2.724 2.8-2.724s2.757 1.21 2.8 2.72l0 0.004v10.4h10.4c1.546 0 2.8 1.253 2.801 2.799v0z"></path>
</symbol>
<symbol id="icon-image" viewBox="0 0 36 32">
<path d="M32.002 3.555h-28.447v24.889l16.515-16.523c0.322-0.322 0.766-0.521 1.257-0.521s0.935 0.199 1.257 0.521v0l9.417 9.429zM0 1.766c0.007-0.972 0.792-1.758 1.763-1.766h32.029c0.974 0.001 1.764 0.79 1.764 1.765 0 0 0 0.001 0 0.001v-0 28.47c-0.006 0.972-0.792 1.759-1.763 1.767h-32.029c-0.974-0.001-1.764-0.791-1.764-1.766 0-0 0-0.001 0-0.001v0zM10.667 14.222c-1.964 0-3.555-1.592-3.555-3.555s1.592-3.555 3.555-3.555c1.964 0 3.555 1.592 3.555 3.555v0c0 1.964-1.592 3.555-3.555 3.555v0z"></path>
</symbol>
<symbol id="icon-edit" viewBox="0 0 32 32">
<path d="M11.117 28.439h20.935v3.561h-32.052v-7.555l17.628-17.628 7.553 7.555-14.067 14.067zM20.144 4.3l3.779-3.779c0.322-0.322 0.767-0.521 1.259-0.521s0.937 0.199 1.259 0.521l5.037 5.037c0.322 0.322 0.521 0.767 0.521 1.259s-0.199 0.937-0.521 1.259l-3.779 3.777-7.553-7.553z"></path>
</symbol>
<symbol id="icon-dot-menu" viewBox="0 0 144 32">
<path d="M16 0c-8.837 0-16 7.163-16 16s7.163 16 16 16c8.837 0 16-7.163 16-16v0c-0.027-8.826-7.174-15.973-15.997-16h-0.003zM128 0c-8.837 0-16 7.163-16 16s7.163 16 16 16c8.837 0 16-7.163 16-16v0c-0.027-8.826-7.174-15.973-15.997-16h-0.003zM72 0c-8.837 0-16 7.163-16 16s7.163 16 16 16c8.837 0 16-7.163 16-16v0c-0.027-8.826-7.174-15.973-15.997-16h-0.003z"></path>
</symbol>
<symbol id="icon-user" viewBox="0 0 24 32">
<path d="M0 32c0.207-6.574 5.586-11.824 12.191-11.824s11.984 5.251 12.19 11.806l0 0.019zM12.196 18.286c-5.050 0-9.143-4.093-9.143-9.143s4.093-9.143 9.143-9.143c5.050 0 9.143 4.093 9.143 9.143v0c0 0.001 0 0.002 0 0.003 0 5.048-4.092 9.14-9.14 9.14-0.001 0-0.002 0-0.003 0h0z"></path>
</symbol>
<symbol id="icon-play" viewBox="0 0 32 32">
<path fill="#ff4d7d" style="fill: var(--color1, #ff4d7d)" d="M31.88 15.49c-0.113-0.223-0.29-0.4-0.507-0.51l-0.007-0.003-29.713-14.856c-0.149-0.076-0.325-0.121-0.512-0.121-0.631 0-1.142 0.511-1.142 1.142 0 0 0 0.001 0 0.001v-0 29.714c0 0 0 0.001 0 0.001 0 0.631 0.511 1.142 1.142 1.142 0.187 0 0.363-0.045 0.518-0.124l-0.006 0.003 29.711-14.857c0.379-0.192 0.634-0.578 0.634-1.024 0-0.185-0.044-0.36-0.122-0.515l0.003 0.007z"></path>
</symbol>

<symbol id="icon-clock" viewBox="0 0 24 24">
<path d="M23 12c0-3.037-1.232-5.789-3.222-7.778s-4.741-3.222-7.778-3.222-5.789 1.232-7.778 3.222-3.222 4.741-3.222 7.778 1.232 5.789 3.222 7.778 4.741 3.222 7.778 3.222 5.789-1.232 7.778-3.222 3.222-4.741 3.222-7.778zM21 12c0 2.486-1.006 4.734-2.636 6.364s-3.878 2.636-6.364 2.636-4.734-1.006-6.364-2.636-2.636-3.878-2.636-6.364 1.006-4.734 2.636-6.364 3.878-2.636 6.364-2.636 4.734 1.006 6.364 2.636 2.636 3.878 2.636 6.364zM11 6v6c0 0.389 0.222 0.727 0.553 0.894l4 2c0.494 0.247 1.095 0.047 1.342-0.447s0.047-1.095-0.447-1.342l-3.448-1.723v-5.382c0-0.552-0.448-1-1-1s-1 0.448-1 1z"></path>
</symbol>
<symbol id="icon-playlist" viewBox="0 0 20 20">
<path d="M16 17c0 1.657-1.343 3-3 3v0h-2c-1.657 0-3-1.343-3-3s1.343-3 3-3v0h2c0.001 0 0.003 0 0.004 0 0.357 0 0.699 0.062 1.016 0.177l-0.021-0.007v-13.17l6-1v4l-4 0.67v12.33zM0 3h12v2h-12v-2zM0 7h12v2h-12v-2zM0 11h12v2h-12v-2zM0 15h6v2h-6v-2z"></path>
</symbol>
<symbol id="icon-add" viewBox="0 0 24 24">
<path d="M18.984 12.984h-6v6h-1.969v-6h-6v-1.969h6v-6h1.969v6h6v1.969z"></path>
</symbol>
<symbol id="icon-plus" viewBox="0 0 32 32">
<path d="M31 12h-11v-11c0-0.552-0.448-1-1-1h-6c-0.552 0-1 0.448-1 1v11h-11c-0.552 0-1 0.448-1 1v6c0 0.552 0.448 1 1 1h11v11c0 0.552 0.448 1 1 1h6c0.552 0 1-0.448 1-1v-11h11c0.552 0 1-0.448 1-1v-6c0-0.552-0.448-1-1-1z"></path>
</symbol>

<symbol id="icon-play3" viewBox="0 0 32 32">
<path d="M6 4l20 12-20 12z"></path>
</symbol>
<symbol id="icon-pause2" viewBox="0 0 32 32">
<path d="M4 4h10v24h-10zM18 4h10v24h-10z"></path>
</symbol>
<symbol id="icon-backward2" viewBox="0 0 32 32">
<path d="M18 5v10l10-10v22l-10-10v10l-11-11z"></path>
</symbol>
<symbol id="icon-forward3" viewBox="0 0 32 32">
<path d="M16 27v-10l-10 10v-22l10 10v-10l11 11z"></path>
</symbol>

<symbol id="icon-appleinc" viewBox="0 0 32 32">
<path d="M24.734 17.003c-0.040-4.053 3.305-5.996 3.454-6.093-1.88-2.751-4.808-3.127-5.851-3.171-2.492-0.252-4.862 1.467-6.127 1.467-1.261 0-3.213-1.43-5.28-1.392-2.716 0.040-5.221 1.579-6.619 4.012-2.822 4.897-0.723 12.151 2.028 16.123 1.344 1.944 2.947 4.127 5.051 4.049 2.026-0.081 2.793-1.311 5.242-1.311s3.138 1.311 5.283 1.271c2.18-0.041 3.562-1.981 4.897-3.931 1.543-2.255 2.179-4.439 2.216-4.551-0.048-0.022-4.252-1.632-4.294-6.473zM20.705 5.11c1.117-1.355 1.871-3.235 1.665-5.11-1.609 0.066-3.559 1.072-4.713 2.423-1.036 1.199-1.942 3.113-1.699 4.951 1.796 0.14 3.629-0.913 4.747-2.264z"></path>
</symbol>

<symbol id="icon-shuffle" viewBox="0 0 32 32">
<path d="M24 22h-3.172l-5-5 5-5h3.172v5l7-7-7-7v5h-4c-0.53 0-1.039 0.211-1.414 0.586l-5.586 5.586-5.586-5.586c-0.375-0.375-0.884-0.586-1.414-0.586h-6v4h5.172l5 5-5 5h-5.172v4h6c0.53 0 1.039-0.211 1.414-0.586l5.586-5.586 5.586 5.586c0.375 0.375 0.884 0.586 1.414 0.586h4v5l7-7-7-7v5z"></path>
</symbol>

<symbol id="icon-dots-three-horizontal" viewBox="0 0 20 20">
<path d="M10.001 7.8c-1.215 0-2.201 0.985-2.201 2.2s0.986 2.2 2.201 2.2c1.215 0 2.199-0.985 2.199-2.2s-0.984-2.2-2.199-2.2zM3.001 7.8c-1.215 0-2.201 0.985-2.201 2.2s0.986 2.2 2.201 2.2c1.215 0 2.199-0.986 2.199-2.2s-0.984-2.2-2.199-2.2zM17.001 7.8c-1.215 0-2.201 0.985-2.201 2.2s0.986 2.2 2.201 2.2c1.215 0 2.199-0.985 2.199-2.2s-0.984-2.2-2.199-2.2z"></path>
</symbol>
<symbol id="icon-chevron-left" viewBox="0 0 24 24">
<path d="M15.707 17.293l-5.293-5.293 5.293-5.293c0.391-0.391 0.391-1.024 0-1.414s-1.024-0.391-1.414 0l-6 6c-0.391 0.391-0.391 1.024 0 1.414l6 6c0.391 0.391 1.024 0.391 1.414 0s0.391-1.024 0-1.414z"></path>
</symbol>
<symbol id="icon-search" viewBox="0 0 32 32">
<path d="M31.008 27.231l-7.58-6.447c-0.784-0.705-1.622-1.029-2.299-0.998 1.789-2.096 2.87-4.815 2.87-7.787 0-6.627-5.373-12-12-12s-12 5.373-12 12 5.373 12 12 12c2.972 0 5.691-1.081 7.787-2.87-0.031 0.677 0.293 1.515 0.998 2.299l6.447 7.58c1.104 1.226 2.907 1.33 4.007 0.23s0.997-2.903-0.23-4.007zM12 20c-4.418 0-8-3.582-8-8s3.582-8 8-8 8 3.582 8 8-3.582 8-8 8z"></path>
</symbol>

<symbol id="icon-play2" viewBox="0 0 18 18">
<path d="M5 4.914l6.915 4.086-6.915 4.086v-8.172zM4 2c-0.552 0-1 0.448-1 1v12c0 0.552 0.448 1 1 1l10.569-6.246c0.267-0.158 0.431-0.444 0.431-0.754s-0.164-0.597-0.431-0.754l-10.569-6.246z"></path>
</symbol>
<symbol id="icon-thumbs-down" viewBox="0 0 24 24">
<path d="M11 15c0-0.552-0.448-1-1-1h-5.679c-0.065-0.002-0.153-0.011-0.153-0.011-0.273-0.041-0.502-0.188-0.655-0.396s-0.225-0.47-0.184-0.742l1.38-8.998c0.037-0.239 0.156-0.448 0.325-0.6 0.179-0.161 0.415-0.256 0.686-0.253h10.28v9.788l-3.608 8.118c-0.307-0.098-0.582-0.268-0.806-0.492-0.363-0.363-0.586-0.861-0.586-1.414zM9 16v3c0 1.104 0.449 2.106 1.172 2.828s1.724 1.172 2.828 1.172c0.405 0 0.754-0.241 0.914-0.594l4-9c0.060-0.134 0.087-0.275 0.086-0.406v-11c0-0.552-0.448-1-1-1h-11.28c-0.767-0.009-1.482 0.281-2.021 0.763-0.505 0.452-0.857 1.076-0.967 1.783l-1.38 9.002c-0.125 0.82 0.096 1.614 0.55 2.231s1.147 1.063 1.965 1.187c0.165 0.025 0.333 0.037 0.492 0.034zM17 3h2.67c0.361-0.006 0.674 0.119 0.912 0.332 0.213 0.191 0.364 0.45 0.418 0.746v6.787c-0.037 0.34-0.208 0.63-0.455 0.833-0.235 0.194-0.537 0.306-0.861 0.301l-2.684 0.001c-0.552 0-1 0.448-1 1s0.448 1 1 1h2.656c0.81 0.012 1.569-0.27 2.16-0.756 0.622-0.511 1.059-1.251 1.176-2.11 0.005-0.040 0.008-0.087 0.008-0.134v-7c0-0.042-0.003-0.089-0.009-0.137-0.111-0.803-0.505-1.51-1.075-2.020-0.6-0.537-1.397-0.858-2.246-0.842h-2.67c-0.552 0-1 0.448-1 1s0.448 1 1 1z"></path>
</symbol>
<symbol id="icon-heart" viewBox="0 0 24 24">
<path d="M20.133 5.317c0.88 0.881 1.319 2.031 1.319 3.184s-0.44 2.303-1.319 3.182l-8.133 8.133-8.133-8.133c-0.879-0.879-1.318-2.029-1.318-3.183s0.439-2.304 1.318-3.183 2.029-1.318 3.183-1.318 2.304 0.439 3.183 1.318l1.060 1.060c0.391 0.391 1.024 0.391 1.414 0l1.062-1.062c0.879-0.879 2.029-1.318 3.182-1.317s2.303 0.44 3.182 1.319zM21.547 3.903c-1.269-1.269-2.934-1.904-4.596-1.905s-3.327 0.634-4.597 1.903l-0.354 0.355-0.353-0.353c-1.269-1.269-2.935-1.904-4.597-1.904s-3.328 0.635-4.597 1.904-1.904 2.935-1.904 4.597 0.635 3.328 1.904 4.597l8.84 8.84c0.391 0.391 1.024 0.391 1.414 0l8.84-8.84c1.269-1.269 1.904-2.934 1.905-4.596s-0.634-3.327-1.905-4.598z"></path>
</symbol>
<symbol id="icon-download" viewBox="0 0 24 24">
<path d="M20 15v4c0 0.276-0.111 0.525-0.293 0.707s-0.431 0.293-0.707 0.293h-14c-0.276 0-0.525-0.111-0.707-0.293s-0.293-0.431-0.293-0.707v-4c0-0.552-0.448-1-1-1s-1 0.448-1 1v4c0 0.828 0.337 1.58 0.879 2.121s1.293 0.879 2.121 0.879h14c0.828 0 1.58-0.337 2.121-0.879s0.879-1.293 0.879-2.121v-4c0-0.552-0.448-1-1-1s-1 0.448-1 1zM13 12.586v-9.586c0-0.552-0.448-1-1-1s-1 0.448-1 1v9.586l-3.293-3.293c-0.391-0.391-1.024-0.391-1.414 0s-0.391 1.024 0 1.414l5 5c0.092 0.092 0.202 0.166 0.324 0.217s0.253 0.076 0.383 0.076c0.256 0 0.512-0.098 0.707-0.293l5-5c0.391-0.391 0.391-1.024 0-1.414s-1.024-0.391-1.414 0z"></path>
</symbol>
<symbol id="icon-playlist_add" viewBox="0 0 24 24">
<path d="M2.016 15.984v-1.969h7.969v1.969h-7.969zM18 14.016h3.984v1.969h-3.984v4.031h-2.016v-4.031h-3.984v-1.969h3.984v-4.031h2.016v4.031zM14.016 6v2.016h-12v-2.016h12zM14.016 9.984v2.016h-12v-2.016h12z"></path>
</symbol>
<symbol id="icon-bin" viewBox="0 0 32 32">
<path d="M4 10v20c0 1.1 0.9 2 2 2h18c1.1 0 2-0.9 2-2v-20h-22zM10 28h-2v-14h2v14zM14 28h-2v-14h2v14zM18 28h-2v-14h2v14zM22 28h-2v-14h2v14z"></path>
<path d="M26.5 4h-6.5v-2.5c0-0.825-0.675-1.5-1.5-1.5h-7c-0.825 0-1.5 0.675-1.5 1.5v2.5h-6.5c-0.825 0-1.5 0.675-1.5 1.5v2.5h26v-2.5c0-0.825-0.675-1.5-1.5-1.5zM18 4h-6v-1.975h6v1.975z"></path>
</symbol>

<symbol id="icon-camera" viewBox="0 0 24 24">
<path d="M24 19v-11c0-0.828-0.337-1.58-0.879-2.121s-1.293-0.879-2.121-0.879h-3.465l-1.703-2.555c-0.182-0.27-0.486-0.445-0.832-0.445h-6c-0.326 0.002-0.64 0.158-0.832 0.445l-1.703 2.555h-3.465c-0.828 0-1.58 0.337-2.121 0.879s-0.879 1.293-0.879 2.121v11c0 0.828 0.337 1.58 0.879 2.121s1.293 0.879 2.121 0.879h18c0.828 0 1.58-0.337 2.121-0.879s0.879-1.293 0.879-2.121zM22 19c0 0.276-0.111 0.525-0.293 0.707s-0.431 0.293-0.707 0.293h-18c-0.276 0-0.525-0.111-0.707-0.293s-0.293-0.431-0.293-0.707v-11c0-0.276 0.111-0.525 0.293-0.707s0.431-0.293 0.707-0.293h4c0.346 0 0.65-0.175 0.832-0.445l1.703-2.555h4.93l1.703 2.555c0.192 0.287 0.506 0.443 0.832 0.445h4c0.276 0 0.525 0.111 0.707 0.293s0.293 0.431 0.293 0.707zM17 13c0-1.38-0.561-2.632-1.464-3.536s-2.156-1.464-3.536-1.464-2.632 0.561-3.536 1.464-1.464 2.156-1.464 3.536 0.561 2.632 1.464 3.536 2.156 1.464 3.536 1.464 2.632-0.561 3.536-1.464 1.464-2.156 1.464-3.536zM15 13c0 0.829-0.335 1.577-0.879 2.121s-1.292 0.879-2.121 0.879-1.577-0.335-2.121-0.879-0.879-1.292-0.879-2.121 0.335-1.577 0.879-2.121 1.292-0.879 2.121-0.879 1.577 0.335 2.121 0.879 0.879 1.292 0.879 2.121z"></path>
</symbol>

<symbol id="icon-folder-music" viewBox="0 0 20 20">
<path d="M18.405 2.799c-0.112-0.44-0.656-0.799-1.21-0.799h-14.39c-0.555 0-1.099 0.359-1.21 0.799l-0.201 1.201h17.211l-0.2-1.201zM19.412 5h-18.825c-0.342 0-0.609 0.294-0.577 0.635l0.923 11.669c0.038 0.394 0.37 0.696 0.766 0.696h16.601c0.397 0 0.728-0.302 0.766-0.696l0.923-11.669c0.033-0.341-0.235-0.635-0.577-0.635zM11.942 12.521c-0.128 0.265-0.258 0.279-0.202 0 0.146-0.721 0.047-2.269-1.043-2.441v3.294c0 0.674-0.311 1.262-1.136 1.528-0.802 0.256-1.699-0.011-1.908-0.586s0.261-1.276 1.052-1.564c0.442-0.161 0.954-0.203 1.299-0.070v-4.682h0.694c-0.001 1.633 2.818 1.275 1.244 4.521z"></path>
</symbol>
<symbol id="icon-chevron-right" viewBox="0 0 24 24">
<path d="M9.707 18.707l6-6c0.391-0.391 0.391-1.024 0-1.414l-6-6c-0.391-0.391-1.024-0.391-1.414 0s-0.391 1.024 0 1.414l5.293 5.293-5.293 5.293c-0.391 0.391-0.391 1.024 0 1.414s1.024 0.391 1.414 0z"></path>
</symbol>
<symbol id="icon-library_music" viewBox="0 0 24 24">
<path d="M3.984 6v14.016h14.016v1.969h-14.016q-0.797 0-1.383-0.586t-0.586-1.383v-14.016h1.969zM18 6.984v-1.969h-3.984v5.484q-0.656-0.516-1.5-0.516-1.031 0-1.781 0.75t-0.75 1.781 0.75 1.758 1.781 0.727 1.758-0.727 0.727-1.758v-5.531h3zM20.016 2.016q0.797 0 1.383 0.586t0.586 1.383v12q0 0.797-0.586 1.406t-1.383 0.609h-12q-0.797 0-1.406-0.609t-0.609-1.406v-12q0-0.797 0.609-1.383t1.406-0.586h12z"></path>
</symbol>
<symbol id="icon-user-circle-o" viewBox="0 0 28 28">
<path d="M14 0c7.734 0 14 6.266 14 14 0 7.688-6.234 14-14 14-7.75 0-14-6.297-14-14 0-7.734 6.266-14 14-14zM23.672 21.109c1.453-2 2.328-4.453 2.328-7.109 0-6.609-5.391-12-12-12s-12 5.391-12 12c0 2.656 0.875 5.109 2.328 7.109 0.562-2.797 1.922-5.109 4.781-5.109 1.266 1.234 2.984 2 4.891 2s3.625-0.766 4.891-2c2.859 0 4.219 2.312 4.781 5.109zM20 11c0-3.313-2.688-6-6-6s-6 2.688-6 6 2.688 6 6 6 6-2.688 6-6z"></path>
</symbol>

<symbol id="icon-message-typing" viewBox="0 0 24 24">
<path d="M18 6h-13c-1.65 0-3 1.35-3 3v7c0 1.65 1.35 3 3 3h1v3l3-3h9c1.65 0 3-1.35 3-3v-7c0-1.65-1.35-3-3-3zM19 16c0 0.542-0.458 1-1 1h-13c-0.542 0-1-0.458-1-1v-7c0-0.542 0.458-1 1-1h13c0.542 0 1 0.458 1 1v7z"></path>
<path d="M7 14.5c-1.104 0-2-0.896-2-2s0.896-2 2-2 2 0.896 2 2-0.896 2-2 2zM7 11.5c-0.552 0-1 0.448-1 1s0.448 1 1 1 1-0.448 1-1-0.448-1-1-1z"></path>
<path d="M11.5 14.5c-1.104 0-2-0.896-2-2s0.896-2 2-2 2 0.896 2 2-0.896 2-2 2zM11.5 11.5c-0.552 0-1 0.448-1 1s0.448 1 1 1 1-0.448 1-1-0.448-1-1-1z"></path>
<path d="M16 14.5c-1.104 0-2-0.896-2-2s0.896-2 2-2 2 0.896 2 2-0.896 2-2 2zM16 11.5c-0.552 0-1 0.448-1 1s0.448 1 1 1 1-0.448 1-1-0.448-1-1-1z"></path>
</symbol>
<symbol id="icon-chat" viewBox="0 0 42 32">
<path d="M35.652 14.023c-0.264-0.082-0.544 0.062-0.628 0.325-0.083 0.263 0.062 0.544 0.325 0.628 3.908 1.245 5.651 3.102 5.651 6.024 0 2.599-2.371 4.616-3.783 5.588-0.136 0.094-0.217 0.247-0.217 0.412v3.823c-0.73-0.272-2.003-0.89-3.126-2.155-0.117-0.131-0.295-0.191-0.468-0.159-0.285 0.055-0.576 0.133-0.871 0.212-0.51 0.137-1.036 0.279-1.535 0.279-2.568 0-4.366-0.552-6.204-1.903-0.224-0.164-0.535-0.115-0.699 0.107-0.164 0.223-0.116 0.535 0.106 0.699 2.027 1.49 3.996 2.097 6.797 2.097 0.631 0 1.223-0.159 1.795-0.313 0.178-0.049 0.355-0.097 0.53-0.138 1.869 1.974 3.983 2.423 4.075 2.441 0.033 0.007 0.066 0.010 0.1 0.010 0.114 0 0.227-0.039 0.316-0.113 0.117-0.095 0.184-0.237 0.184-0.387v-4.239c2.582-1.841 4-4.057 4-6.261 0-3.381-2.017-5.598-6.348-6.977zM33 13.5c0-7.696-7.018-13.5-16.323-13.5-9.352 0-16.677 5.931-16.677 13.502 0 4.539 3.211 7.791 6 9.759v6.636c0 0.17 0.086 0.327 0.228 0.42 0.083 0.053 0.177 0.080 0.272 0.080 0.069 0 0.139-0.015 0.205-0.044 0.146-0.065 3.559-1.616 6.479-4.809 1.265 0.235 2.696 0.461 3.994 0.461 9.463 0 15.822-5.026 15.822-12.505zM17.177 25.005c-1.31 0-2.799-0.251-4.083-0.496-0.173-0.031-0.351 0.028-0.468 0.159-2.050 2.312-4.459 3.781-5.626 4.414v-6.082c0-0.165-0.081-0.318-0.217-0.412-2.638-1.815-5.783-4.863-5.783-9.086 0-7.011 6.886-12.502 15.677-12.502 8.736 0 15.323 5.374 15.323 12.5 0 6.882-5.957 11.505-14.823 11.505zM16.5 11.5c-1.103 0-2 0.897-2 2s0.897 2 2 2 2-0.897 2-2-0.897-2-2-2zM16.5 14.5c-0.551 0-1-0.448-1-1s0.449-1 1-1 1 0.448 1 1-0.449 1-1 1zM23.5 11.5c-1.103 0-2 0.897-2 2s0.897 2 2 2 2-0.897 2-2-0.897-2-2-2zM23.5 14.5c-0.551 0-1-0.448-1-1s0.449-1 1-1 1 0.448 1 1-0.449 1-1 1zM9.5 11.595c-1.103 0-2 0.897-2 2s0.897 2 2 2 2-0.897 2-2-0.897-2-2-2zM9.5 14.595c-0.551 0-1-0.448-1-1s0.449-1 1-1 1 0.448 1 1-0.449 1-1 1z"></path>
</symbol>
<symbol id="icon-podcast" viewBox="0 0 32 32">
<path d="M32 16c0-8.837-7.163-16-16-16s-16 7.163-16 16c0 6.877 4.339 12.739 10.428 15.002l-0.428 0.998h12l-0.428-0.998c6.089-2.263 10.428-8.125 10.428-15.002zM15.212 19.838c-0.713-0.306-1.212-1.014-1.212-1.838 0-1.105 0.895-2 2-2s2 0.895 2 2c0 0.825-0.499 1.533-1.212 1.839l-0.788-1.839-0.788 1.838zM16.821 19.915c1.815-0.379 3.179-1.988 3.179-3.915 0-2.209-1.791-4-4-4s-4 1.791-4 4c0 1.928 1.364 3.535 3.18 3.913l-2.332 5.441c-2.851-1.223-4.848-4.056-4.848-7.355 0-4.418 3.582-8.375 8-8.375s8 3.957 8 8.375c0 3.299-1.997 6.131-4.848 7.355l-2.331-5.439zM21.514 30.866l-2.31-5.39c3.951-1.336 6.796-5.073 6.796-9.476 0-5.523-4.477-10-10-10s-10 4.477-10 10c0 4.402 2.845 8.14 6.796 9.476l-2.31 5.39c-4.987-2.14-8.481-7.095-8.481-12.866 0-7.729 6.266-14.37 13.995-14.37s13.995 6.641 13.995 14.37c0 5.771-3.494 10.726-8.481 12.866z"></path>
</symbol>
<symbol id="icon-list2" viewBox="0 0 32 32">
<path d="M12 2h20v4h-20v-4zM12 14h20v4h-20v-4zM12 26h20v4h-20v-4zM0 4c0-2.209 1.791-4 4-4s4 1.791 4 4c0 2.209-1.791 4-4 4s-4-1.791-4-4zM0 16c0-2.209 1.791-4 4-4s4 1.791 4 4c0 2.209-1.791 4-4 4s-4-1.791-4-4zM0 28c0-2.209 1.791-4 4-4s4 1.791 4 4c0 2.209-1.791 4-4 4s-4-1.791-4-4z"></path>
</symbol>

<symbol id="icon-volume-medium" viewBox="0 0 32 32">
<path d="M22.485 25.985c-0.384 0-0.768-0.146-1.061-0.439-0.586-0.586-0.586-1.535 0-2.121 4.094-4.094 4.094-10.755 0-14.849-0.586-0.586-0.586-1.536 0-2.121s1.536-0.586 2.121 0c2.55 2.55 3.954 5.94 3.954 9.546s-1.404 6.996-3.954 9.546c-0.293 0.293-0.677 0.439-1.061 0.439v0zM17.157 23.157c-0.384 0-0.768-0.146-1.061-0.439-0.586-0.586-0.586-1.535 0-2.121 2.534-2.534 2.534-6.658 0-9.192-0.586-0.586-0.586-1.536 0-2.121s1.535-0.586 2.121 0c3.704 3.704 3.704 9.731 0 13.435-0.293 0.293-0.677 0.439-1.061 0.439z"></path>
<path d="M13 30c-0.26 0-0.516-0.102-0.707-0.293l-7.707-7.707h-3.586c-0.552 0-1-0.448-1-1v-10c0-0.552 0.448-1 1-1h3.586l7.707-7.707c0.286-0.286 0.716-0.372 1.090-0.217s0.617 0.519 0.617 0.924v26c0 0.404-0.244 0.769-0.617 0.924-0.124 0.051-0.254 0.076-0.383 0.076z"></path>
</symbol>
<symbol id="icon-volume-mute" viewBox="0 0 32 32">
<path d="M13 30c-0.26 0-0.516-0.102-0.707-0.293l-7.707-7.707h-3.586c-0.552 0-1-0.448-1-1v-10c0-0.552 0.448-1 1-1h3.586l7.707-7.707c0.286-0.286 0.716-0.372 1.090-0.217s0.617 0.519 0.617 0.924v26c0 0.404-0.244 0.769-0.617 0.924-0.124 0.051-0.254 0.076-0.383 0.076z"></path>
</symbol>
<symbol id="icon-bars" viewBox="0 0 24 24">
<path d="M3 13h18c0.552 0 1-0.448 1-1s-0.448-1-1-1h-18c-0.552 0-1 0.448-1 1s0.448 1 1 1zM3 7h18c0.552 0 1-0.448 1-1s-0.448-1-1-1h-18c-0.552 0-1 0.448-1 1s0.448 1 1 1zM3 19h18c0.552 0 1-0.448 1-1s-0.448-1-1-1h-18c-0.552 0-1 0.448-1 1s0.448 1 1 1z"></path>
</symbol>
<symbol id="icon-close" viewBox="0 0 24 24">
<path d="M18.984 6.422l-5.578 5.578 5.578 5.578-1.406 1.406-5.578-5.578-5.578 5.578-1.406-1.406 5.578-5.578-5.578-5.578 1.406-1.406 5.578 5.578 5.578-5.578z"></path>
</symbol>
</defs>
</svg>
