<svg id="menu" xmlns="http://www.w3.org/2000/svg" width="21.991" height="21.991" viewBox="0 0 21.991 21.991">
  <g id="Group_7" data-name="Group 7">
    <g id="Group_6" data-name="Group 6">
      <path id="Path_10" data-name="Path 10" d="M7.593,0H2.543A2.546,2.546,0,0,0,0,2.543v5.05a2.546,2.546,0,0,0,2.543,2.543h5.05a2.546,2.546,0,0,0,2.543-2.543V2.543A2.546,2.546,0,0,0,7.593,0Zm.825,7.593a.826.826,0,0,1-.825.825H2.543a.826.826,0,0,1-.825-.825V2.543a.826.826,0,0,1,.825-.825h5.05a.826.826,0,0,1,.825.825Z" fill="#fff"/>
    </g>
  </g>
  <g id="Group_9" data-name="Group 9" transform="translate(11.854)">
    <g id="Group_8" data-name="Group 8">
      <path id="Path_11" data-name="Path 11" d="M283.559,0h-4.982A2.58,2.58,0,0,0,276,2.577V7.559a2.58,2.58,0,0,0,2.577,2.577h4.982a2.58,2.58,0,0,0,2.577-2.577V2.577A2.58,2.58,0,0,0,283.559,0Zm.859,7.559a.86.86,0,0,1-.859.859h-4.982a.86.86,0,0,1-.859-.859V2.577a.86.86,0,0,1,.859-.859h4.982a.86.86,0,0,1,.859.859Z" transform="translate(-276)" fill="#fff"/>
    </g>
  </g>
  <g id="Group_11" data-name="Group 11" transform="translate(0 11.854)">
    <g id="Group_10" data-name="Group 10">
      <path id="Path_12" data-name="Path 12" d="M7.593,276H2.543A2.546,2.546,0,0,0,0,278.543v5.05a2.546,2.546,0,0,0,2.543,2.543h5.05a2.546,2.546,0,0,0,2.543-2.543v-5.05A2.546,2.546,0,0,0,7.593,276Zm.825,7.593a.826.826,0,0,1-.825.825H2.543a.826.826,0,0,1-.825-.825v-5.05a.826.826,0,0,1,.825-.825h5.05a.826.826,0,0,1,.825.825Z" transform="translate(0 -276)" fill="#fff"/>
    </g>
  </g>
  <g id="Group_13" data-name="Group 13" transform="translate(11.854 11.854)">
    <g id="Group_12" data-name="Group 12">
      <path id="Path_13" data-name="Path 13" d="M283.559,276h-4.982A2.58,2.58,0,0,0,276,278.577v4.982a2.58,2.58,0,0,0,2.577,2.577h4.982a2.58,2.58,0,0,0,2.577-2.577v-4.982A2.58,2.58,0,0,0,283.559,276Zm.859,7.559a.86.86,0,0,1-.859.859h-4.982a.86.86,0,0,1-.859-.859v-4.982a.86.86,0,0,1,.859-.859h4.982a.86.86,0,0,1,.859.859Z" transform="translate(-276 -276)" fill="#fff"/>
    </g>
  </g>
</svg>
