<svg xmlns="http://www.w3.org/2000/svg" width="23.452" height="23.457" viewBox="0 0 23.452 23.457">
  <g id="playlist-icon" transform="translate(-0.05)">
    <g id="Group_14" data-name="Group 14" transform="translate(0.05)">
      <path id="Path_14" data-name="Path 14" d="M6.811,1.542A1.546,1.546,0,0,0,5.269,0H1.592A1.546,1.546,0,0,0,.05,1.542V5.214A1.546,1.546,0,0,0,1.592,6.756H5.264A1.546,1.546,0,0,0,6.806,5.214V1.542ZM5.63,5.219a.364.364,0,0,1-.361.361H1.592a.364.364,0,0,1-.361-.361V1.542a.364.364,0,0,1,.361-.361H5.264a.364.364,0,0,1,.361.361V5.219Z" transform="translate(-0.05 0)" fill="#f9233d"/>
      <path id="Path_15" data-name="Path 15" d="M6.811,174.842A1.546,1.546,0,0,0,5.269,173.3H1.592A1.546,1.546,0,0,0,.05,174.842v3.672a1.546,1.546,0,0,0,1.542,1.542H5.264a1.546,1.546,0,0,0,1.542-1.542v-3.672ZM5.63,178.514a.364.364,0,0,1-.361.361H1.592a.364.364,0,0,1-.361-.361v-3.672a.364.364,0,0,1,.361-.361H5.264a.364.364,0,0,1,.361.361v3.672Z" transform="translate(-0.05 -164.949)" fill="#f9233d"/>
      <path id="Path_16" data-name="Path 16" d="M5.269,346.5H1.592A1.546,1.546,0,0,0,.05,348.042v3.672a1.546,1.546,0,0,0,1.542,1.542H5.264a1.546,1.546,0,0,0,1.542-1.542v-3.672A1.539,1.539,0,0,0,5.269,346.5Zm.361,5.219a.364.364,0,0,1-.361.361H1.592a.364.364,0,0,1-.361-.361v-3.672a.364.364,0,0,1,.361-.361H5.264a.364.364,0,0,1,.361.361v3.672Z" transform="translate(-0.05 -329.803)" fill="#f9233d"/>
      <path id="Path_17" data-name="Path 17" d="M173.35,178.514a1.546,1.546,0,0,0,1.542,1.542h3.672a1.546,1.546,0,0,0,1.542-1.542v-3.672a1.546,1.546,0,0,0-1.542-1.542h-3.672a1.546,1.546,0,0,0-1.542,1.542v3.672Zm1.181-3.672a.364.364,0,0,1,.361-.361h3.672a.364.364,0,0,1,.361.361v3.672a.364.364,0,0,1-.361.361h-3.672a.364.364,0,0,1-.361-.361v-3.672Z" transform="translate(-164.999 -164.949)" fill="#f9233d"/>
      <path id="Path_18" data-name="Path 18" d="M173.35,351.814a1.547,1.547,0,0,0,1.542,1.542h3.672a1.546,1.546,0,0,0,1.542-1.542v-3.672a1.546,1.546,0,0,0-1.542-1.542h-3.672a1.546,1.546,0,0,0-1.542,1.542v3.672Zm1.181-3.677a.364.364,0,0,1,.361-.361h3.672a.364.364,0,0,1,.361.361v3.672a.364.364,0,0,1-.361.361h-3.672a.364.364,0,0,1-.361-.361v-3.672Z" transform="translate(-164.999 -329.899)" fill="#f9233d"/>
      <path id="Path_19" data-name="Path 19" d="M346.55,178.514a1.547,1.547,0,0,0,1.542,1.542h3.672a1.547,1.547,0,0,0,1.542-1.542v-3.672a1.547,1.547,0,0,0-1.542-1.542h-3.672a1.547,1.547,0,0,0-1.542,1.542v3.672Zm1.181-3.672a.364.364,0,0,1,.361-.361h3.672a.364.364,0,0,1,.361.361v3.672a.364.364,0,0,1-.361.361h-3.672a.364.364,0,0,1-.361-.361v-3.672Z" transform="translate(-329.853 -164.949)" fill="#f9233d"/>
      <path id="Path_20" data-name="Path 20" d="M346.55,351.814a1.547,1.547,0,0,0,1.542,1.542h3.672a1.547,1.547,0,0,0,1.542-1.542v-3.672a1.547,1.547,0,0,0-1.542-1.542h-3.672a1.547,1.547,0,0,0-1.542,1.542v3.672Zm1.181-3.677a.364.364,0,0,1,.361-.361h3.672a.364.364,0,0,1,.361.361v3.672a.364.364,0,0,1-.361.361h-3.672a.364.364,0,0,1-.361-.361v-3.672Z" transform="translate(-329.853 -329.899)" fill="#f9233d"/>
      <path id="Path_21" data-name="Path 21" d="M173.35,1.542V5.214a1.546,1.546,0,0,0,1.542,1.542h3.672a1.546,1.546,0,0,0,1.542-1.542V1.542A1.546,1.546,0,0,0,178.564,0h-3.672A1.543,1.543,0,0,0,173.35,1.542Zm1.181,0a.364.364,0,0,1,.361-.361h3.672a.364.364,0,0,1,.361.361V5.214a.364.364,0,0,1-.361.361h-3.672a.364.364,0,0,1-.361-.361V1.542Z" transform="translate(-164.999 0)" fill="#f9233d"/>
      <path id="Path_22" data-name="Path 22" d="M348.092,6.761h3.672a1.547,1.547,0,0,0,1.542-1.542V1.542A1.547,1.547,0,0,0,351.764,0h-3.672a1.547,1.547,0,0,0-1.542,1.542V5.214A1.548,1.548,0,0,0,348.092,6.761Zm-.361-5.219a.364.364,0,0,1,.361-.361h3.672a.364.364,0,0,1,.361.361V5.214a.364.364,0,0,1-.361.361h-3.672a.364.364,0,0,1-.361-.361V1.542Z" transform="translate(-329.853 0)" fill="#f9233d"/>
    </g>
  </g>
</svg>
